# xmcd CD database file
# Copyright (C) 1996 Ti Kan
#
# Track frame offsets:
#  182
#  10480
#  23225
#  35945
#  50070
#  60712
#  72647
#  85417
#  96657
#  110560
#  125210
#  138615
#
# Disc length: 2009 seconds
#
# Revision: 2
# Processed by: cddbd v1.4PL0 Copyright (c) Steve Scherf et al.
# Submitted via: Gronk 1.4
#
DISCID=c507d70c
DTITLE=Freddie King - Freddy King Sings
DYEAR=1900
DGENRE=blues
TTITLE0=See See Baby
TTITLE1=Lonesome Whistle Blues
TTITLE2=Takin' Care Of Business
TTITLE3=Have You Ever Loved A Woman
TTITLE4=You Know That You Love Me
TTITLE5=I'm Tore Down
TTITLE6=I Love the Woman
TTITLE7=Let Me Be
TTITLE8=It's Too Bad Things Are Going So Tough
TTITLE9=You've Got To Love Her With A Feeling
TTITLE10=If You Believe
TTITLE11=You Mean, Mean Woman
EXTD=
EXTT0=
EXTT1=
EXTT2=
EXTT3=
EXTT4=
EXTT5=
EXTT6=
EXTT7=
EXTT8=
EXTT9=
EXTT10=
EXTT11=
PLAYORDER=
